TITLE ""
FILE "1Q_j_2384-2400.mp3" MP3
  TRACK 01 AUDIO
    TITLE "1Q_j_2384-2400_001"
    INDEX 01 00:00:00
  TRACK 02 AUDIO
    TITLE "1Q_j_2384-2400_002"
    INDEX 01 00:00:08
  TRACK 03 AUDIO
    TITLE "1Q_j_2384-2400_003"
    INDEX 01 00:01:41
  TRACK 04 AUDIO
    TITLE "1Q_j_2384-2400_004"
    INDEX 01 00:01:53
  TRACK 05 AUDIO
    TITLE "1Q_j_2384-2400_005"
    INDEX 01 00:04:08
  TRACK 06 AUDIO
    TITLE "1Q_j_2384-2400_006"
    INDEX 01 00:04:16
  TRACK 07 AUDIO
    TITLE "1Q_j_2384-2400_007"
    INDEX 01 00:10:36
  TRACK 08 AUDIO
    TITLE "1Q_j_2384-2400_008"
    INDEX 01 00:11:08
  TRACK 09 AUDIO
    TITLE "1Q_j_2384-2400_009"
    INDEX 01 00:12:31
  TRACK 10 AUDIO
    TITLE "1Q_j_2384-2400_010"
    INDEX 01 00:12:39
  TRACK 11 AUDIO
    TITLE "1Q_j_2384-2400_011"
    INDEX 01 00:15:18
  TRACK 12 AUDIO
    TITLE "1Q_j_2384-2400_012"
    INDEX 01 00:15:27
  TRACK 13 AUDIO
    TITLE "1Q_j_2384-2400_013"
    INDEX 01 00:20:62
  TRACK 14 AUDIO
    TITLE "1Q_j_2384-2400_014"
    INDEX 01 00:21:32
  TRACK 15 AUDIO
    TITLE "1Q_j_2384-2400_015"
    INDEX 01 00:22:63
  TRACK 16 AUDIO
    TITLE "1Q_j_2384-2400_016"
    INDEX 01 00:22:71
  TRACK 17 AUDIO
    TITLE "1Q_j_2384-2400_017"
    INDEX 01 00:24:73
  TRACK 18 AUDIO
    TITLE "1Q_j_2384-2400_018"
    INDEX 01 00:25:06
  TRACK 19 AUDIO
    TITLE "1Q_j_2384-2400_019"
    INDEX 01 00:30:19
  TRACK 20 AUDIO
    TITLE "1Q_j_2384-2400_020"
    INDEX 01 00:30:64
  TRACK 21 AUDIO
    TITLE "1Q_j_2384-2400_021"
    INDEX 01 00:32:08
  TRACK 22 AUDIO
    TITLE "1Q_j_2384-2400_022"
    INDEX 01 00:32:18
  TRACK 23 AUDIO
    TITLE "1Q_j_2384-2400_023"
    INDEX 01 00:34:09
  TRACK 24 AUDIO
    TITLE "1Q_j_2384-2400_024"
    INDEX 01 00:34:17
  TRACK 25 AUDIO
    TITLE "1Q_j_2384-2400_025"
    INDEX 01 00:39:30
  TRACK 26 AUDIO
    TITLE "1Q_j_2384-2400_026"
    INDEX 01 00:40:00
  TRACK 27 AUDIO
    TITLE "1Q_j_2384-2400_027"
    INDEX 01 00:41:21
  TRACK 28 AUDIO
    TITLE "1Q_j_2384-2400_028"
    INDEX 01 00:41:31
  TRACK 29 AUDIO
    TITLE "1Q_j_2384-2400_029"
    INDEX 01 00:46:18
  TRACK 30 AUDIO
    TITLE "1Q_j_2384-2400_030"
    INDEX 01 00:46:26
  TRACK 31 AUDIO
    TITLE "1Q_j_2384-2400_031"
    INDEX 01 00:50:42
  TRACK 32 AUDIO
    TITLE "1Q_j_2384-2400_032"
    INDEX 01 00:51:12
  TRACK 33 AUDIO
    TITLE "1Q_j_2384-2400_033"
    INDEX 01 00:52:19
  TRACK 34 AUDIO
    TITLE "1Q_j_2384-2400_034"
    INDEX 01 00:52:31
  TRACK 35 AUDIO
    TITLE "1Q_j_2384-2400_035"
    INDEX 01 00:56:30
  TRACK 36 AUDIO
    TITLE "1Q_j_2384-2400_036"
    INDEX 01 00:56:38
  TRACK 37 AUDIO
    TITLE "1Q_j_2384-2400_037"
    INDEX 01 01:01:41
  TRACK 38 AUDIO
    TITLE "1Q_j_2384-2400_038"
    INDEX 01 01:02:11
  TRACK 39 AUDIO
    TITLE "1Q_j_2384-2400_039"
    INDEX 01 01:03:46
  TRACK 40 AUDIO
    TITLE "1Q_j_2384-2400_040"
    INDEX 01 01:03:58
  TRACK 41 AUDIO
    TITLE "1Q_j_2384-2400_041"
    INDEX 01 01:05:70
  TRACK 42 AUDIO
    TITLE "1Q_j_2384-2400_042"
    INDEX 01 01:06:01
  TRACK 43 AUDIO
    TITLE "1Q_j_2384-2400_043"
    INDEX 01 01:10:66
  TRACK 44 AUDIO
    TITLE "1Q_j_2384-2400_044"
    INDEX 01 01:11:42
  TRACK 45 AUDIO
    TITLE "1Q_j_2384-2400_045"
    INDEX 01 01:12:72
  TRACK 46 AUDIO
    TITLE "1Q_j_2384-2400_046"
    INDEX 01 01:13:05
  TRACK 47 AUDIO
    TITLE "1Q_j_2384-2400_047"
    INDEX 01 01:15:36
  TRACK 48 AUDIO
    TITLE "1Q_j_2384-2400_048"
    INDEX 01 01:15:43
  TRACK 49 AUDIO
    TITLE "1Q_j_2384-2400_049"
    INDEX 01 01:21:11
  TRACK 50 AUDIO
    TITLE "1Q_j_2384-2400_050"
    INDEX 01 01:21:56
  TRACK 51 AUDIO
    TITLE "1Q_j_2384-2400_051"
    INDEX 01 01:23:12
  TRACK 52 AUDIO
    TITLE "1Q_j_2384-2400_052"
    INDEX 01 01:23:19
  TRACK 53 AUDIO
    TITLE "1Q_j_2384-2400_053"
    INDEX 01 01:24:54
  TRACK 54 AUDIO
    TITLE "1Q_j_2384-2400_054"
    INDEX 01 01:24:60
  TRACK 55 AUDIO
    TITLE "1Q_j_2384-2400_055"
    INDEX 01 01:31:05
  TRACK 56 AUDIO
    TITLE "1Q_j_2384-2400_056"
    INDEX 01 01:31:52
  TRACK 57 AUDIO
    TITLE "1Q_j_2384-2400_057"
    INDEX 01 01:32:67
  TRACK 58 AUDIO
    TITLE "1Q_j_2384-2400_058"
    INDEX 01 01:33:00
  TRACK 59 AUDIO
    TITLE "1Q_j_2384-2400_059"
    INDEX 01 01:37:27
  TRACK 60 AUDIO
    TITLE "1Q_j_2384-2400_060"
    INDEX 01 01:37:33
  TRACK 61 AUDIO
    TITLE "1Q_j_2384-2400_061"
    INDEX 01 01:43:24
  TRACK 62 AUDIO
    TITLE "1Q_j_2384-2400_062"
    INDEX 01 01:43:69
  TRACK 63 AUDIO
    TITLE "1Q_j_2384-2400_063"
    INDEX 01 01:45:19
  TRACK 64 AUDIO
    TITLE "1Q_j_2384-2400_064"
    INDEX 01 01:45:27
  TRACK 65 AUDIO
    TITLE "1Q_j_2384-2400_065"
    INDEX 01 01:47:39
  TRACK 66 AUDIO
    TITLE "1Q_j_2384-2400_066"
    INDEX 01 01:47:47
  TRACK 67 AUDIO
    TITLE "1Q_j_2384-2400_067"
    INDEX 01 01:51:49
  TRACK 68 AUDIO
    TITLE "1Q_j_2384-2400_068"
    INDEX 01 01:52:19
  TRACK 69 AUDIO
    TITLE "1Q_j_2384-2400_069"
    INDEX 01 01:54:40
  TRACK 70 AUDIO
    TITLE "1Q_j_2384-2400_070"
    INDEX 01 01:54:49
  TRACK 71 AUDIO
    TITLE "1Q_j_2384-2400_071"
    INDEX 01 01:57:01
  TRACK 72 AUDIO
    TITLE "1Q_j_2384-2400_072"
    INDEX 01 01:57:09
  TRACK 73 AUDIO
    TITLE "1Q_j_2384-2400_073"
    INDEX 01 02:03:46
  TRACK 74 AUDIO
    TITLE "1Q_j_2384-2400_074"
    INDEX 01 02:04:16
  TRACK 75 AUDIO
    TITLE "1Q_j_2384-2400_075"
    INDEX 01 02:05:18
  TRACK 76 AUDIO
    TITLE "1Q_j_2384-2400_076"
    INDEX 01 02:05:37
  TRACK 77 AUDIO
    TITLE "1Q_j_2384-2400_077"
    INDEX 01 02:07:15
  TRACK 78 AUDIO
    TITLE "1Q_j_2384-2400_078"
    INDEX 01 02:07:21
  TRACK 79 AUDIO
    TITLE "1Q_j_2384-2400_079"
    INDEX 01 02:10:19
  TRACK 80 AUDIO
    TITLE "1Q_j_2384-2400_080"
    INDEX 01 02:10:64
  TRACK 81 AUDIO
    TITLE "1Q_j_2384-2400_081"
    INDEX 01 02:12:32
  TRACK 82 AUDIO
    TITLE "1Q_j_2384-2400_082"
    INDEX 01 02:12:39
  TRACK 83 AUDIO
    TITLE "1Q_j_2384-2400_083"
    INDEX 01 02:15:03
  TRACK 84 AUDIO
    TITLE "1Q_j_2384-2400_084"
    INDEX 01 02:15:10
  TRACK 85 AUDIO
    TITLE "1Q_j_2384-2400_085"
    INDEX 01 02:19:34
  TRACK 86 AUDIO
    TITLE "1Q_j_2384-2400_086"
    INDEX 01 02:20:04
  TRACK 87 AUDIO
    TITLE "1Q_j_2384-2400_087"
    INDEX 01 02:21:31
  TRACK 88 AUDIO
    TITLE "1Q_j_2384-2400_088"
    INDEX 01 02:21:40
  TRACK 89 AUDIO
    TITLE "1Q_j_2384-2400_089"
    INDEX 01 02:27:14
  TRACK 90 AUDIO
    TITLE "1Q_j_2384-2400_090"
    INDEX 01 02:27:19
  TRACK 91 AUDIO
    TITLE "1Q_j_2384-2400_091"
    INDEX 01 02:32:30
  TRACK 92 AUDIO
    TITLE "1Q_j_2384-2400_092"
    INDEX 01 02:33:00
  TRACK 93 AUDIO
    TITLE "1Q_j_2384-2400_093"
    INDEX 01 02:34:45
  TRACK 94 AUDIO
    TITLE "1Q_j_2384-2400_094"
    INDEX 01 02:34:53
  TRACK 95 AUDIO
    TITLE "1Q_j_2384-2400_095"
    INDEX 01 02:37:04
  TRACK 96 AUDIO
    TITLE "1Q_j_2384-2400_096"
    INDEX 01 02:37:12
  TRACK 97 AUDIO
    TITLE "1Q_j_2384-2400_097"
    INDEX 01 02:41:02
  TRACK 98 AUDIO
    TITLE "1Q_j_2384-2400_098"
    INDEX 01 02:41:47
  TRACK 99 AUDIO
    TITLE "1Q_j_2384-2400_099"
    INDEX 01 02:43:01
  TRACK 100 AUDIO
    TITLE "1Q_j_2384-2400_100"
    INDEX 01 02:43:13
  TRACK 101 AUDIO
    TITLE "1Q_j_2384-2400_101"
    INDEX 01 02:44:65
  TRACK 102 AUDIO
    TITLE "1Q_j_2384-2400_102"
    INDEX 01 02:44:71
  TRACK 103 AUDIO
    TITLE "1Q_j_2384-2400_103"
    INDEX 01 02:50:64
